<svg width="46" height="46" viewBox="0 0 46 46" fill="none" xmlns="http://www.w3.org/2000/svg">
<path d="M22.7981 45.048C19.8061 45.048 16.9607 44.4613 14.2621 43.288C11.5634 42.1147 9.1874 40.5013 7.13406 38.448C5.08073 36.3947 3.46739 34.0187 2.29406 31.32C1.12073 28.6213 0.534058 25.776 0.534058 22.784C0.534058 19.7333 1.12073 16.8293 2.29406 14.072C3.46739 11.3147 5.08073 8.90933 7.13406 6.85599C9.1874 4.80266 11.5634 3.21866 14.2621 2.104C16.9607 0.930661 19.8061 0.343994 22.7981 0.343994C25.8487 0.343994 28.7527 0.930661 31.5101 2.104C34.2674 3.21866 36.6727 4.80266 38.7261 6.85599C40.7794 8.90933 42.3634 11.3147 43.4781 14.072C44.6514 16.8293 45.2381 19.7333 45.2381 22.784C45.2381 25.776 44.6514 28.6213 43.4781 31.32C42.3634 34.0187 40.7794 36.3947 38.7261 38.448C36.6727 40.5013 34.2674 42.1147 31.5101 43.288C28.7527 44.4613 25.8487 45.048 22.7981 45.048ZM22.7981 8.17599C18.8674 8.17599 15.4941 9.58399 12.6781 12.4C11.3287 13.7493 10.2727 15.3333 9.51006 17.152C8.7474 18.9707 8.36606 20.848 8.36606 22.784C8.36606 24.72 8.7474 26.568 9.51006 28.328C10.2727 30.088 11.3287 31.6427 12.6781 32.992C14.0274 34.3413 15.5527 35.3973 17.2541 36.16C19.0141 36.9227 20.8621 37.304 22.7981 37.304C24.7341 37.304 26.6114 36.9227 28.4301 36.16C30.2487 35.3973 31.8034 34.3413 33.0941 32.992C34.3847 31.6427 35.4114 30.088 36.1741 28.328C36.9367 26.568 37.3181 24.72 37.3181 22.784C37.3181 20.848 36.9367 18.9707 36.1741 17.152C35.4114 15.3333 34.3847 13.7493 33.0941 12.4C31.8034 11.0507 30.2487 10.024 28.4301 9.31999C26.6701 8.55733 24.7927 8.17599 22.7981 8.17599Z" fill="#0065FC"/>
<path d="M27.4438 17.108C27.4438 19.5933 25.4291 21.608 22.9438 21.608C20.4586 21.608 18.4438 19.5933 18.4438 17.108C18.4438 14.6228 20.4586 12.608 22.9438 12.608C25.4291 12.608 27.4438 14.6228 27.4438 17.108Z" fill="#0065FC"/>
<path d="M18.4438 31.608L20.6163 15.608H25.5818L27.4438 31.608H18.4438Z" fill="#0065FC"/>
</svg>
